<svg width="24" height="24" viewBox="0 0 24 24" fill="none" xmlns="http://www.w3.org/2000/svg">
<path d="M9.3062 20.7203C8.5908 20.8877 7.89775 20.9993 7.23824 20.9993C6.31046 20.9993 5.01379 20.7984 4.09718 19.8945C2.96819 18.7562 2.74463 16.8591 3.27 14.7275C4.01894 15.8658 4.91319 16.9818 5.95276 18.0308C7.01468 19.091 8.14367 19.9726 9.3062 20.7203V20.7203Z" fill="white"/>
<path d="M9.3062 3.27899C8.14367 4.0267 7.01468 4.90832 5.95276 5.96849C4.91319 7.01751 4.01894 8.13348 3.27 9.27178C2.74463 7.14027 2.96819 5.24311 4.09718 4.10482C5.01379 3.18972 6.31046 3 7.23824 3C7.89775 3 8.5908 3.10044 9.3062 3.27899V3.27899Z" fill="white"/>
<path d="M12.0022 14.2246C13.2369 14.2246 14.2379 13.2254 14.2379 11.9927C14.2379 10.76 13.2369 9.76074 12.0022 9.76074C10.7675 9.76074 9.7666 10.76 9.7666 11.9927C9.7666 13.2254 10.7675 14.2246 12.0022 14.2246Z" fill="white"/>
<path d="M16.4606 7.54143C15.0969 6.17994 13.5543 5.07513 12.0006 4.29395C10.4468 5.07513 8.90422 6.17994 7.54049 7.54143C6.16558 8.92524 5.07012 10.4653 4.29883 11.9942C5.07012 13.5342 6.16558 15.0743 7.54049 16.4581C8.90422 17.8196 10.4468 18.9244 12.0006 19.7056C13.5543 18.9244 15.0969 17.8196 16.4606 16.4581C17.8356 15.0743 18.931 13.5342 19.7023 11.9942C18.931 10.4653 17.8356 8.92524 16.4606 7.54143ZM12.0006 16.4581C9.5302 16.4581 7.52931 14.4605 7.52931 11.9942C7.52931 9.52787 9.5302 7.53027 12.0006 7.53027C14.4709 7.53027 16.4718 9.52787 16.4718 11.9942C16.4718 14.4605 14.4709 16.4581 12.0006 16.4581Z" fill="white"/>
<path d="M19.9043 19.8945C18.9877 20.7984 17.6911 20.9993 16.7633 20.9993C16.1038 20.9993 15.4107 20.8877 14.6953 20.7203C15.8578 19.9726 16.9868 19.091 18.0488 18.0308C19.0883 16.9818 19.9826 15.8658 20.7315 14.7275C21.2569 16.8591 21.0333 18.7562 19.9043 19.8945V19.8945Z" fill="white"/>
<path d="M20.7315 9.27178C19.9826 8.13348 19.0883 7.01751 18.0488 5.96849C16.9868 4.90832 15.8578 4.0267 14.6953 3.27899C15.4107 3.10044 16.1038 3 16.7633 3C17.6911 3 18.9877 3.18972 19.9043 4.10482C21.0333 5.24311 21.2569 7.14027 20.7315 9.27178Z" fill="white"/>
</svg>
