<svg width="18" height="18" viewBox="0 0 18 18" fill="none" xmlns="http://www.w3.org/2000/svg">
<path d="M17.1675 5.205C16.605 5.82 15.7875 6.21 14.8875 6.21C13.1775 6.21 11.79 4.8225 11.79 3.1125C11.79 2.2125 12.1725 1.4025 12.7875 0.8325C11.6325 0.3 10.35 0 9 0C4.0275 0 0 4.0275 0 9C0 13.9725 4.0275 18 9 18C13.9725 18 18 13.9725 18 9C18 7.6425 17.7 6.36 17.1675 5.205ZM9 12.6975C6.9525 12.6975 5.295 11.0475 5.295 9C5.295 6.9525 6.9525 5.3025 9 5.3025C11.0475 5.3025 12.6975 6.96 12.6975 9C12.6975 11.04 11.04 12.6975 9 12.6975Z" fill="white"/>
<path d="M16.485 3.11281C16.485 3.35281 16.4325 3.58531 16.335 3.78781C16.08 4.32781 15.5325 4.71031 14.8875 4.71031C14.0025 4.71031 13.29 3.99031 13.29 3.11281C13.29 2.47531 13.665 1.92031 14.205 1.66531C14.415 1.56031 14.64 1.50781 14.8875 1.50781C15.7725 1.50781 16.485 2.22781 16.485 3.11281Z" fill="white"/>
</svg>
