<svg width="550" height="586" viewBox="0 0 550 586" fill="none" xmlns="http://www.w3.org/2000/svg">
<path d="M173.457 103.387L403.974 333.904C444.745 374.676 444.745 440.875 403.974 481.647C396.351 489.269 383.977 489.269 376.354 481.647L145.837 251.13C105.065 210.358 105.065 144.159 145.837 103.387C153.46 95.7643 165.834 95.7643 173.457 103.387Z" fill="url(#paint0_linear_252_336)"/>
<path d="M58.1984 218.645L235.032 395.479C242.654 403.101 242.654 415.476 235.032 423.098L174.97 483.16C167.347 490.783 154.973 490.782 147.35 483.16L30.5788 366.388C-10.1929 325.616 -10.1929 259.417 30.5788 218.645C38.2014 211.023 50.5758 211.023 58.1984 218.645Z" fill="url(#paint1_linear_252_336)"/>
<path d="M231.065 566.874C255.277 591.087 294.534 591.087 318.746 566.874C342.959 542.662 342.959 503.405 318.746 479.193C294.534 454.98 255.277 454.98 231.065 479.193C206.852 503.405 206.852 542.662 231.065 566.874Z" fill="url(#paint2_linear_252_336)"/>
<path d="M491.612 366.388L314.779 189.555C307.157 181.932 307.157 169.558 314.779 161.935L374.841 101.874C382.463 94.2511 394.838 94.2511 402.46 101.874L519.232 218.645C560.004 259.417 560.004 325.616 519.232 366.388C511.609 374.011 499.235 374.011 491.612 366.388Z" fill="url(#paint3_linear_252_336)"/>
<path d="M231.065 105.841C255.277 130.053 294.534 130.053 318.746 105.841C342.959 81.6281 342.959 42.3719 318.746 18.1594C294.534 -6.05313 255.277 -6.05313 231.065 18.1594C206.852 42.3719 206.852 81.6281 231.065 105.841Z" fill="url(#paint4_linear_252_336)"/>
<defs>
<linearGradient id="paint0_linear_252_336" x1="629.607" y1="292.517" x2="-56.4228" y2="292.517" gradientUnits="userSpaceOnUse">
<stop stop-color="#E11985"/>
<stop offset="1" stop-color="#E11931"/>
</linearGradient>
<linearGradient id="paint1_linear_252_336" x1="979.882" y1="292.517" x2="-87.8131" y2="292.517" gradientUnits="userSpaceOnUse">
<stop stop-color="#E11985"/>
<stop offset="1" stop-color="#E11931"/>
</linearGradient>
<linearGradient id="paint2_linear_252_336" x1="839.393" y1="292.517" x2="-1650.23" y2="292.517" gradientUnits="userSpaceOnUse">
<stop stop-color="#E11985"/>
<stop offset="1" stop-color="#E11931"/>
</linearGradient>
<linearGradient id="paint3_linear_252_336" x1="549.811" y1="0.000111241" x2="-15.7263" y2="15.6194" gradientUnits="userSpaceOnUse">
<stop stop-color="#E11985"/>
<stop offset="1" stop-color="#E11931"/>
</linearGradient>
<linearGradient id="paint4_linear_252_336" x1="549.811" y1="0.000111241" x2="-15.7263" y2="15.6194" gradientUnits="userSpaceOnUse">
<stop stop-color="#E11985"/>
<stop offset="1" stop-color="#E11931"/>
</linearGradient>
</defs>
</svg>
