<svg width="24" height="24" viewBox="0 0 24 24" fill="none" xmlns="http://www.w3.org/2000/svg">
<path d="M9.72571 3.28983C6.16881 4.21597 3.46801 7.26324 3.05493 11H7.05009C7.2743 8.23681 8.1991 5.58442 9.72571 3.28983Z" fill="white"/>
<path d="M14.9424 11C14.6912 8.28683 13.6697 5.70193 12 3.5508C10.3303 5.70193 9.30879 8.28683 9.05759 11H14.9424Z" fill="white"/>
<path d="M20.9451 11C20.532 7.26324 17.8312 4.21597 14.2743 3.28983C15.8009 5.58442 16.7257 8.23681 16.9499 11H20.9451Z" fill="white"/>
<path d="M14.2743 20.7102C17.8312 19.784 20.532 16.7368 20.9451 13H16.9499C16.7257 15.7632 15.8009 18.4156 14.2743 20.7102Z" fill="white"/>
<path d="M9.05759 13C9.30879 15.7132 10.3303 18.2981 12 20.4492C13.6697 18.2981 14.6912 15.7132 14.9424 13H9.05759Z" fill="white"/>
<path d="M3.05493 13C3.46801 16.7368 6.16881 19.784 9.72571 20.7102C8.1991 18.4156 7.2743 15.7632 7.05009 13H3.05493Z" fill="white"/>
</svg>
