<svg width="24" height="24" viewBox="0 0 24 24" fill="none" xmlns="http://www.w3.org/2000/svg">
<g clip-path="url(#clip0_307_4150)">
<path d="M14.1503 10.8301C13.1403 10.8301 12.3203 11.6601 12.3203 12.6701C12.3203 13.6801 13.1403 14.5101 14.1503 14.5101C15.1603 14.5101 15.9903 13.6801 15.9903 12.6701C15.9903 11.6601 15.1703 10.8301 14.1503 10.8301Z" fill="white"/>
<path d="M20.55 10.45C20.56 10.35 20.56 10.26 20.56 10.17C20.56 6.76 17.8 4 14.39 4C11.92 4 9.8 5.45 8.81 7.54C8.26 7.15 7.58 6.92 6.85 6.92C5.03 6.92 3.55 8.35 3.55 10.11C3.55 10.37 3.58 10.63 3.64 10.87C1.56 11.31 0 13.2 0 15.45C0 18.03 2.05 20 4.58 20H19.61C22.04 20 24 17.93 24 15.23C24 12.88 22.52 10.93 20.55 10.45ZM19.26 13.64C19 13.9 18.65 14.05 18.29 14.05H18.25C18.19 14.05 18.13 14.07 18.08 14.1C18.03 14.13 18 14.17 17.97 14.23C17.95 14.29 17.94 14.35 17.95 14.41C17.96 14.46 17.99 14.52 18.03 14.56L18.05 14.59C18.18 14.71 18.28 14.87 18.35 15.03C18.42 15.2 18.46 15.38 18.46 15.56C18.46 15.74 18.42 15.92 18.35 16.09C18.28 16.26 18.18 16.41 18.05 16.54C17.93 16.66 17.78 16.76 17.61 16.83C17.44 16.9 17.26 16.94 17.08 16.94C16.9 16.94 16.72 16.9 16.55 16.83C16.39 16.76 16.23 16.66 16.11 16.53L16.08 16.51C16.08 16.51 15.98 16.44 15.93 16.43H15.88C15.88 16.43 15.79 16.44 15.75 16.45C15.69 16.48 15.65 16.51 15.62 16.56C15.58 16.61 15.57 16.67 15.57 16.73V16.8C15.57 17.17 15.42 17.52 15.16 17.78C14.91 18.04 14.56 18.18 14.19 18.18C13.82 18.18 13.47 18.04 13.22 17.78C12.96 17.52 12.81 17.17 12.81 16.8V16.77C12.81 16.71 12.79 16.65 12.76 16.61C12.72 16.56 12.67 16.52 12.62 16.5C12.61 16.5 12.6 16.49 12.59 16.49C12.54 16.46 12.47 16.46 12.42 16.47C12.36 16.48 12.3 16.51 12.26 16.55L12.24 16.57C12.11 16.7 11.96 16.8 11.79 16.87C11.62 16.94 11.44 16.98 11.26 16.98C11.08 16.98 10.9 16.94 10.73 16.87C10.57 16.8 10.42 16.7 10.29 16.57C10.16 16.44 10.06 16.29 9.99 16.12C9.92 15.96 9.88 15.78 9.88 15.6C9.88 15.42 9.92 15.24 9.99 15.07C10.06 14.9 10.16 14.75 10.29 14.62L10.31 14.6C10.31 14.6 10.38 14.5 10.39 14.44C10.39 14.42 10.4 14.4 10.4 14.37C10.4 14.34 10.39 14.3 10.37 14.27C10.35 14.21 10.31 14.17 10.26 14.13C10.21 14.1 10.16 14.08 10.1 14.08H10.02C9.65 14.08 9.3 13.94 9.05 13.68C8.79 13.42 8.64 13.07 8.64 12.71C8.64 12.35 8.79 11.99 9.05 11.73C9.3 11.47 9.65 11.33 10.02 11.33H10.05C10.11 11.33 10.17 11.31 10.22 11.27C10.27 11.24 10.3 11.19 10.32 11.13C10.32 11.13 10.3233 11.1233 10.33 11.11C10.36 11.05 10.37 10.99 10.36 10.93C10.34 10.88 10.32 10.82 10.28 10.78L10.25 10.75C10.12 10.63 10.02 10.47 9.95 10.31C9.88 10.14 9.85 9.96 9.85 9.78C9.85 9.6 9.88 9.42 9.95 9.25C10.02 9.08 10.12 8.93 10.25 8.8C10.38 8.68 10.53 8.58 10.7 8.51C10.87 8.44 11.04 8.4 11.23 8.4C11.41 8.4 11.59 8.44 11.75 8.51C11.92 8.58 12.07 8.68 12.2 8.81L12.23 8.83C12.23 8.83 12.32 8.9 12.38 8.91C12.44 8.92 12.5 8.91 12.55 8.89L12.64 8.86C12.64 8.86 12.7 8.81 12.73 8.78C12.76 8.73 12.78 8.67 12.78 8.61V8.54C12.78 8.17 12.92 7.82 13.18 7.56C13.44 7.3 13.79 7.16 14.15 7.16C14.51 7.16 14.87 7.3 15.13 7.56C15.39 7.82 15.53 8.17 15.53 8.54V8.58C15.53 8.64 15.55 8.69 15.58 8.74C15.61 8.79 15.66 8.83 15.71 8.85C15.76 8.88 15.82 8.88 15.88 8.87C15.94 8.86 15.99 8.83 16.03 8.79L16.06 8.77C16.19 8.64 16.34 8.54 16.51 8.47C16.67 8.4 16.85 8.36 17.03 8.36C17.21 8.36 17.39 8.4 17.56 8.47C17.73 8.54 17.88 8.64 18.01 8.77C18.14 8.9 18.24 9.05 18.31 9.22C18.38 9.38 18.41 9.56 18.41 9.74C18.41 9.92 18.38 10.1 18.31 10.27C18.24 10.44 18.14 10.59 18.01 10.72L17.98 10.74C17.98 10.74 17.91 10.84 17.9 10.9C17.9 10.96 17.9 11.02 17.92 11.07C17.94 11.1 17.95 11.13 17.95 11.16C17.98 11.19 18 11.22 18.04 11.24C18.08 11.27 18.14 11.29 18.2 11.29H18.28C18.64 11.29 18.99 11.44 19.25 11.7C19.51 11.95 19.65 12.3 19.65 12.67C19.65 13.04 19.51 13.39 19.25 13.64H19.26Z" fill="white"/>
</g>
<defs>
<clipPath id="clip0_307_4150">
<rect width="24" height="16" fill="white" transform="translate(0 4)"/>
</clipPath>
</defs>
</svg>
