<svg width="115" height="115" viewBox="0 0 115 115" fill="none" xmlns="http://www.w3.org/2000/svg">
<path d="M101.509 23.9595C96.1901 18.6404 87.5663 18.6404 82.2473 23.9594L68.6798 37.5266L31.5924 40.1309C32.7052 42.7274 33.8892 45.2193 35.1166 47.4356C41.1134 57.875 37.2188 70.4257 28.5631 79.0813C22.9368 84.7076 22.0567 92.0503 28.5628 98.5565C35.4872 105.481 46.4824 101.153 51.8257 95.8099L101.509 43.2215C106.828 37.9025 106.828 29.2785 101.509 23.9595Z" fill="#71C042"/>
<path d="M35.7309 47.3899C29.2822 40.9412 29.3716 30.3963 35.8203 23.9476V23.9476C42.3686 17.3993 53.0761 17.3086 59.6244 23.8568L71.1207 35.3531L59.0839 47.3899C52.6352 53.8387 42.1797 53.8387 35.7309 47.3899V47.3899Z" fill="url(#paint0_linear_8803_53031)"/>
<circle cx="21.7765" cy="60.7503" r="11.3903" fill="#71C042"/>
<defs>
<linearGradient id="paint0_linear_8803_53031" x1="35.1726" y1="46.4755" x2="63.658" y2="27.8267" gradientUnits="userSpaceOnUse">
<stop stop-color="#2B994C"/>
<stop offset="1" stop-color="#19592C"/>
</linearGradient>
</defs>
</svg>
