<svg width="24" height="24" viewBox="0 0 24 24" fill="none" xmlns="http://www.w3.org/2000/svg">
<path d="M20.6428 12.0158C20.6428 11.7928 20.7329 11.5914 20.8789 11.4461C21.025 11.3 21.2263 11.2099 21.4487 11.2099H22.9974C22.6125 5.76579 18.2743 1.4125 12.8362 1.00461V2.59737C12.8362 3.04211 12.4757 3.40329 12.0303 3.40329C11.5849 3.40329 11.225 3.04211 11.225 2.59737V1C5.75724 1.37895 1.38684 5.74474 1 11.2099H2.6125C3.05724 11.2099 3.41776 11.5704 3.41776 12.0158C3.41776 12.4612 3.05724 12.8211 2.6125 12.8211H1.00197C1.40263 18.2724 5.76711 22.6224 11.225 23V21.4336C11.225 20.9888 11.5855 20.6283 12.0303 20.6283C12.2533 20.6283 12.4546 20.7184 12.6 20.8638C12.7454 21.0092 12.8362 21.2112 12.8362 21.4336V22.9954C18.2638 22.5882 22.5961 18.2513 22.9954 12.8211H21.4487C21.0039 12.8211 20.6428 12.4605 20.6428 12.0158ZM16.9618 11.6013L12.4849 13.823L12.3 13.9092C12.2204 13.9467 12.1368 13.9664 12.0533 13.9724H12.0507C12.0395 13.9724 12.0283 13.9737 12.0171 13.9737C11.9987 13.9737 11.9803 13.9737 11.9618 13.9724L11.9382 13.9704C11.9243 13.9691 11.9099 13.9671 11.8954 13.9651C11.6382 13.9257 11.3974 13.75 11.2717 13.4803C11.2158 13.3612 11.1895 13.2362 11.1888 13.1145V13.1039L11.2217 6.93618C11.2237 6.48158 11.5934 6.11513 12.048 6.11711C12.502 6.11908 12.8684 6.48882 12.8664 6.94342L12.8395 11.8454L16.2691 10.1099C16.6461 9.93487 17.1066 10.127 17.2974 10.5388C17.4888 10.9507 17.3388 11.427 16.9618 11.6013Z" fill="white"/>
</svg>
