<svg width="24" height="24" viewBox="0 0 24 24" fill="none" xmlns="http://www.w3.org/2000/svg">
<g clip-path="url(#clip0_307_4028)">
<path d="M21.6302 6.2V15C21.6302 15.21 21.5502 15.42 21.3902 15.57C21.2402 15.72 21.0302 15.8 20.8202 15.8H20.2702V11.5C20.2702 10.82 20.0002 10.18 19.5102 9.7C19.0302 9.22 18.3702 8.95 17.6802 8.95H10.3702L8.90016 6.78C8.74016 6.54 8.47016 6.4 8.18016 6.4H6.91016V3.8C6.91016 3.59 6.99016 3.38 7.15016 3.23C7.30016 3.08 7.51016 3 7.72016 3H11.3802L12.7702 5.04C12.9202 5.27 13.1802 5.4 13.4502 5.4H20.8202C21.0302 5.4 21.2402 5.48 21.3902 5.63C21.5502 5.78 21.6302 5.99 21.6302 6.2V6.2Z" fill="white"/>
<path d="M18.54 11.4996V20.8496C18.54 21.0796 18.45 21.2896 18.29 21.4496C18.13 21.6096 17.91 21.6996 17.68 21.6996H3.86C3.63 21.6996 3.41 21.6096 3.25 21.4496C3.09 21.2896 3 21.0796 3 20.8496V8.94961C3 8.71961 3.09 8.50961 3.25 8.34961C3.41 8.18961 3.63 8.09961 3.86 8.09961H7.72L9.19 10.2696C9.35 10.5096 9.62 10.6496 9.91 10.6496H17.68C17.91 10.6496 18.13 10.7396 18.29 10.8996C18.45 11.0596 18.54 11.2696 18.54 11.4996Z" fill="white"/>
</g>
<defs>
<clipPath id="clip0_307_4028">
<rect width="18.63" height="18.7" fill="white" transform="translate(3 3)"/>
</clipPath>
</defs>
</svg>
