<svg width="24" height="24" viewBox="0 0 24 24" fill="none" xmlns="http://www.w3.org/2000/svg">
<path d="M19.0742 4.00004C17.4618 4.00004 16.1538 5.40325 16.1538 7.12587C16.1538 7.8017 16.3603 8.42423 16.7025 8.93612L14.6392 11.7057C14.3961 11.6166 14.1399 11.5575 13.8689 11.5575C13.5521 11.5575 13.2514 11.6269 12.9747 11.747L11.7574 10.2838C11.9639 9.89679 12.0911 9.45579 12.0911 8.97918C12.0911 7.51322 10.9754 6.31538 9.59781 6.31538C8.22583 6.31538 7.10976 7.51322 7.10976 8.97918C7.10976 9.61032 7.32507 10.1827 7.66995 10.6389L5.76861 13.8551C5.50463 13.7718 5.23087 13.7134 4.94194 13.7134C3.31869 13.7142 2 15.123 2 16.8571C2 18.5912 3.31865 20 4.94178 20C6.56488 20 7.88357 18.5912 7.88357 16.8571C7.88357 16.0517 7.59091 15.3244 7.12357 14.7678L9.02075 11.5587C9.20645 11.6062 9.39789 11.638 9.59721 11.638C9.94103 11.638 10.2686 11.5636 10.5663 11.4293L11.7844 12.8929C11.5978 13.2574 11.482 13.669 11.482 14.1135C11.482 15.5223 12.5497 16.6688 13.8687 16.6688C15.1875 16.6688 16.2605 15.5223 16.2605 14.1135C16.2605 13.6191 16.1225 13.1609 15.894 12.7694L17.95 10.0097C18.2963 10.1647 18.6756 10.2518 19.0743 10.2518C20.6866 10.2517 22 8.84844 22 7.12583C22 5.40321 20.6866 4 19.0742 4L19.0742 4.00004Z" fill="white"/>
</svg>
